<?xml version="1.0" encoding="UTF-8"?>
<svg version="1.1" xmlns="http://www.w3.org/2000/svg" width="1024" height="1024">
<path d="M0 0 C337.92 0 675.84 0 1024 0 C1024 337.92 1024 675.84 1024 1024 C686.08 1024 348.16 1024 0 1024 C0 686.08 0 348.16 0 0 Z " fill="none" transform="translate(0,0)"/>
<path d="M0 0 C9.81653295 7.50206583 17.05757642 16.63982737 19.75 28.875 C20.66502115 43.87534668 19.06803028 55.57520002 9.75 67.875 C11.47215718 71.87040467 14.12753635 75.12012073 16.8125 78.5 C17.30274658 79.12100586 17.79299316 79.74201172 18.2980957 80.38183594 C21.91474205 84.92271681 25.71684574 89.25207545 29.64453125 93.52734375 C32.43305056 96.63662038 35.00161614 99.89647307 37.5859375 103.17578125 C40.08436646 106.29205275 42.65956564 109.33520909 45.25 112.375 C49.07113151 116.86484572 52.80373051 121.40851796 56.46875 126.02734375 C63.64796687 134.98907166 70.98206712 143.82953424 78.4375 152.5625 C82.63698488 157.48474034 86.65010004 162.53127963 90.62133789 167.63867188 C94.65492397 172.80511017 98.87095304 177.80001637 103.125 182.78515625 C107.07605281 187.41926754 110.90740788 192.15095305 114.75 196.875 C116.24943092 198.70879879 117.74943458 200.54212943 119.25 202.375 C128.25 213.375 128.25 213.375 130.49609375 216.12109375 C132.00798227 217.96837522 133.52101749 219.81471875 135.03515625 221.66015625 C139.9848484 227.69657327 144.88801591 233.76771209 149.75 239.875 C152.69712741 239.26839341 154.82692447 238.36562793 157.33984375 236.72265625 C158.03013672 236.28091064 158.72042969 235.83916504 159.43164062 235.3840332 C160.17607422 234.90667725 160.92050781 234.42932129 161.6875 233.9375 C192.69672238 214.6702767 227.85565543 204.54786707 264.375 204.8125 C266.16744141 204.81926758 266.16744141 204.81926758 267.99609375 204.82617188 C270.91411647 204.83784397 273.83203037 204.85421674 276.75 204.875 C276.86625732 203.75496582 276.98251465 202.63493164 277.10229492 201.48095703 C277.71510547 196.60375283 278.87517449 191.93079317 280.11328125 187.1796875 C280.3465361 186.26978058 280.57979095 185.35987366 280.82011414 184.4223938 C281.31290084 182.50398143 281.8080442 180.58617304 282.30541992 178.66894531 C283.05455831 175.78061943 283.79648755 172.89052005 284.53710938 170 C286.8836953 160.87406598 289.31106349 151.78606722 291.9387207 142.73681641 C292.98285006 139.05361319 293.85334823 135.36138488 294.6875 131.625 C296.24051754 124.80902227 298.04623328 118.08924117 299.95361328 111.36474609 C301.77161121 104.91291452 303.32632247 98.42623157 304.75 91.875 C304.24210937 91.5346875 303.73421875 91.194375 303.2109375 90.84375 C295.86540333 85.67161358 289.4515222 79.01895266 287.75 69.875 C286.6627205 59.01318764 287.0505147 50.0144213 293.75 40.875 C299.71792981 34.0912296 307.57190058 28.81634353 316.75 27.875 C327.18877913 27.35306104 335.27028581 29.59105507 343.75 35.875 C350.00576487 41.59493918 354.27803247 49.23460114 354.98828125 57.72265625 C355.23036849 68.20885619 353.49884518 75.98110024 346.75 84.1875 C341.15570168 90.01373441 333.76985049 94.37440428 325.75 95.875 C323.41699067 95.91388349 321.08290199 95.9198635 318.75 95.875 C318.64441772 96.44410599 318.53883545 97.01321198 318.43005371 97.5995636 C317.04186368 104.82663233 315.262793 111.9236606 313.40625 119.04296875 C312.90734897 120.97028639 312.4084484 122.89760415 311.90956879 124.82492733 C311.38411133 126.85277427 310.85730924 128.88026733 310.33007812 130.90765381 C309.24340837 135.08634175 308.16038496 139.26596884 307.078125 143.44580078 C305.99388656 147.63281459 304.90954691 151.81980152 303.82397461 156.00646973 C300.77947197 167.74923769 297.75834049 179.49791845 294.75 191.25 C294.33139479 192.88436246 293.91277554 194.51872132 293.49414062 196.15307617 C292.57887 199.72690834 291.66419701 203.30089303 290.75 206.875 C291.96534424 206.85751709 293.18068848 206.84003418 294.43286133 206.82202148 C297.66683782 206.82411013 300.64908852 207.0581545 303.82421875 207.72265625 C304.72769043 207.91158447 305.63116211 208.1005127 306.56201172 208.29516602 C343.25276194 216.49124038 376.71623674 232.18487855 404.4765625 257.7890625 C406.5889424 259.7272255 408.74998072 261.58523271 410.9375 263.4375 C415.84258994 267.7058237 420.14260637 272.46390956 423.75 277.875 C428.53434963 276.31963159 431.96547596 273.61204542 435.875 270.5625 C441.83848017 265.99733877 447.90349333 261.64391276 454.125 257.4375 C461.21361528 252.63803641 468.19360052 247.71465319 475.1184082 242.68212891 C482.24851286 237.50185136 489.44515261 232.41954919 496.65429688 227.35009766 C498.73486243 225.88565484 500.81316142 224.41805809 502.890625 222.94921875 C514.66983073 214.62106026 526.48890663 206.35035084 538.31152344 198.08398438 C540.85372513 196.30628889 543.39566905 194.52822554 545.9375 192.75 C547.17753784 191.8827832 547.17753784 191.8827832 548.44262695 190.99804688 C553.16801822 187.69087887 557.88203971 184.36830561 562.58740234 181.03271484 C569.89521651 175.85339024 577.25713244 170.7836223 584.75 165.875 C584.20798316 162.20717731 583.46863811 158.90956994 582.1875 155.4375 C578.86360581 144.49497706 579.95022432 133.16628374 584.75 122.875 C591.95651745 109.4430504 602.00543082 100.02398154 616.75 95.4375 C630.62842835 91.93391417 643.96590018 93.96203359 656.3203125 101.28515625 C667.91516955 108.87214471 674.11550998 119.71688414 678.36328125 132.7578125 C680.85088476 146.37681353 677.80123597 159.00849507 670.3671875 170.56640625 C661.92629961 182.61607954 651.31254333 189.21150452 636.75 191.875 C622.36658885 193.41155383 610.24766555 189.50826455 598.75 180.875 C598.01136719 179.99521484 598.01136719 179.99521484 597.2578125 179.09765625 C595.77870294 177.63315815 595.77870294 177.63315815 593.47265625 177.89453125 C589.89416548 179.18319866 587.16132747 181.25773351 584.1875 183.5625 C582.84793038 184.57240664 581.50669753 185.5801098 580.1640625 186.5859375 C579.45024414 187.12186523 578.73642578 187.65779297 578.00097656 188.20996094 C574.07594348 191.11329344 570.06881376 193.89795327 566.0625 196.6875 C565.22082275 197.2748291 564.37914551 197.8621582 563.51196289 198.46728516 C560.92558341 200.27121198 558.33791106 202.07327124 555.75 203.875 C552.37354784 206.2270917 548.99840221 208.58103595 545.625 210.9375 C544.79597168 211.51661133 543.96694336 212.09572266 543.11279297 212.69238281 C537.598421 216.55449636 532.13242856 220.47825739 526.6875 224.4375 C520.61068576 228.85572501 514.46582748 233.15469696 508.25 237.375 C501.20650914 242.15746627 494.26815304 247.06337105 487.38110352 252.06811523 C480.26150157 257.24111553 473.07521774 262.315915 465.87646484 267.37792969 C463.70331304 268.90786848 461.53289793 270.44161524 459.36328125 271.9765625 C450.85910574 277.9921497 442.32908467 283.96662169 433.75 289.875 C434.13929688 290.52082031 434.52859375 291.16664063 434.9296875 291.83203125 C445.96184413 310.41384345 455.50177769 329.0995139 461.22705078 350.00341797 C461.66308843 351.56395234 462.13742607 353.11372102 462.62109375 354.66015625 C466.8454538 368.47140595 468.40305072 383.48369705 467.75 397.875 C469.58498047 398.23839478 469.58498047 398.23839478 471.45703125 398.60913086 C477.61055912 399.98110204 483.49104826 402.0549833 489.4375 404.12890625 C490.65284424 404.54865219 491.86818848 404.96839813 493.12036133 405.40086365 C495.69327296 406.28970878 498.26504494 407.18174802 500.8359375 408.07641602 C504.04878416 409.19445386 507.26349128 410.30700675 510.47898483 411.41740608 C526.06218137 416.79964412 541.60077255 422.29784379 557.10040283 427.91610718 C561.23058222 429.41082472 565.36513796 430.89329549 569.5 432.375 C570.5043811 432.73820595 570.5043811 432.73820595 571.52905273 433.10874939 C576.53571475 434.95520748 576.53571475 434.95520748 581.75 435.875 C583.75118168 434.8079832 583.75118168 434.8079832 585.5 433.125 C591.79436779 428.05650159 598.21544466 426.31093134 606.265625 426.5859375 C615.95621819 427.71345935 623.0665082 432.38815595 629.203125 439.828125 C634.75395091 447.17315726 634.84142301 454.87985538 633.75 463.875 C630.81687259 473.52987772 625.40874607 478.99422137 616.88671875 483.9609375 C609.72362117 487.30473894 600.89046661 487.12894179 593.4609375 484.87890625 C585.16019191 481.16983892 579.3183818 475.63862289 575.59765625 467.2890625 C573.55463763 461.16942147 572.67448927 455.1015322 574.75 448.875 C573.52059692 448.71572021 573.52059692 448.71572021 572.26635742 448.55322266 C568.15214128 447.75968711 564.41400596 446.46222872 560.48828125 445.0234375 C559.68093033 444.73251724 558.87357941 444.44159698 558.04176331 444.14186096 C556.29454019 443.51183882 554.54812172 442.87958165 552.8024292 442.24533081 C548.09996822 440.53707342 543.39159283 438.84526566 538.68359375 437.15234375 C537.70747131 436.80093826 536.73134888 436.44953278 535.72564697 436.08747864 C524.16098926 431.93148521 512.55247252 427.90150308 500.93936157 423.88323975 C489.81504865 420.03403505 478.74868406 416.07068068 467.75 411.875 C467.69408691 412.9688501 467.63817383 414.0627002 467.58056641 415.18969727 C466.05234381 443.98090285 458.84585962 476.51833124 441.89453125 500.5 C440.44337042 502.83186654 440.44337042 502.83186654 441.46289062 505.29174805 C442.78445087 507.94414353 444.07649179 509.53546341 446.19921875 511.58203125 C446.88306641 512.25169922 447.56691406 512.92136719 448.27148438 513.61132812 C449.34366211 514.6390332 449.34366211 514.6390332 450.4375 515.6875 C455.21706474 520.31645751 459.80247724 524.98998241 464.13989258 530.0378418 C466.39693782 532.61316635 468.79963794 534.98229351 471.25 537.375 C475.03680573 541.10502623 478.62397309 544.93734079 482.07421875 548.98046875 C483.88977378 551.03301931 485.79759536 552.95246006 487.75 554.875 C490.28814799 557.37439764 492.69128303 559.91281792 495 562.625 C498.08561568 566.22016689 501.3819696 569.54838405 504.75 572.875 C508.67065661 576.74756514 512.404042 580.68292255 515.9765625 584.8828125 C518.94693779 588.21957769 522.17081411 591.30278176 525.34765625 594.44140625 C527.38714373 596.50742365 529.305078 598.60505549 531.1875 600.8125 C534.49211116 604.67959816 538.07845304 608.23277845 541.69628906 611.80175781 C544.98032695 615.05863618 548.04717621 618.43258157 551.046875 621.94921875 C554.11536827 625.41886825 557.43759155 628.64002448 560.75 631.875 C563.42038897 630.81673474 566.07024117 629.73521219 568.703125 628.5859375 C580.95142353 623.6227644 593.52660155 622.67901348 606.0390625 627.546875 C618.82146265 633.80914597 628.32020888 643.44403563 633.0625 656.875 C636.45551774 668.75056209 636.11217426 681.36940358 630.42578125 692.45703125 C622.99619501 705.46368222 613.32602862 713.71042039 598.75 717.875 C586.35733229 720.78288581 574.53519259 718.32006059 563.5 712.1875 C553.31226692 705.58862744 544.90988151 696.14436504 542.13598633 684.12133789 C540.08773272 672.20104602 540.35226339 659.38170548 546.75 648.875 C547.32105469 648.19566406 547.89210938 647.51632812 548.48046875 646.81640625 C549.95049218 644.97984218 549.95049218 644.97984218 549.6640625 642.859375 C548.52353696 640.38336228 547.11625763 638.98555733 545.125 637.125 C542.38105439 634.48827785 539.78103344 631.83383549 537.3125 628.9375 C534.74334729 625.94698284 532.05682744 623.14383316 529.25 620.375 C525.8428121 617.01385518 522.67541826 613.53798797 519.5625 609.90625 C517.5390712 607.63861428 515.41346653 605.5092305 513.25 603.375 C510.54616607 600.70745914 507.95744465 598.02040508 505.5 595.125 C502.26661096 591.34767635 498.78300089 587.86816999 495.25 584.375 C491.13027484 580.30172044 487.17298716 576.1852522 483.421875 571.765625 C480.73857156 568.73123513 477.82003379 565.93733063 474.9375 563.09375 C472.34803119 560.46728878 469.96163036 557.70523542 467.5625 554.90625 C465.5390712 552.63861428 463.41346653 550.5092305 461.25 548.375 C457.8428121 545.01385518 454.67541826 541.53798797 451.5625 537.90625 C448.82943977 534.84333768 445.88751514 532.00163604 442.9609375 529.125 C440.2310208 526.34685155 437.72910594 523.41478115 435.2578125 520.40625 C433.71999474 518.61272159 433.71999474 518.61272159 430.75 517.875 C430.16734375 518.66261719 429.5846875 519.45023438 428.984375 520.26171875 C423.1122333 528.10055416 416.85444453 535.40248972 410.08398438 542.47802734 C408.94641327 543.66931246 407.82321776 544.87429764 406.703125 546.08203125 C396.57105221 556.71204779 384.11081313 565.07045953 371.75 572.875 C370.68910156 573.55175781 369.62820313 574.22851562 368.53515625 574.92578125 C355.94931908 582.53830579 341.78717051 588.50040234 327.75 592.875 C328.91947276 607.62043476 330.43567875 622.29131282 332.26416016 636.96875 C334.76479837 657.0743839 337.25456196 677.18373838 339.5625 697.3125 C339.748125 698.88040283 339.748125 698.88040283 339.9375 700.47998047 C340.629958 706.63980174 340.89527493 712.67745234 340.75 718.875 C341.74 718.9575 342.73 719.04 343.75 719.125 C352.24960908 720.40763719 358.50219911 725.22853149 363.75 731.875 C368.6840398 739.54486331 369.91184774 746.87616045 368.75 755.875 C366.56536943 765.70583756 361.0958103 773.24157805 352.75 778.875 C347.48863498 781.51551071 343.30317403 782.42540606 337.4375 782.375 C336.69274414 782.37145508 335.94798828 782.36791016 335.18066406 782.36425781 C328.77540886 782.17218367 324.04910787 780.53950403 318.75 776.875 C317.8425 776.318125 316.935 775.76125 316 775.1875 C309.159415 768.15689874 305.77103258 759.77767423 305.375 750.0625 C305.61489733 739.92368128 309.43509289 733.60222409 316.140625 726.19921875 C318.35807315 724.22409652 320.40031971 722.77183548 322.91308594 721.22973633 C323.63204041 720.78664627 324.35099487 720.34355621 325.09173584 719.88703918 C325.63896301 719.55306625 326.18619019 719.21909332 326.75 718.875 C325.49825063 707.85023218 324.24624112 696.82549393 322.99392223 685.80079079 C322.29830873 679.67692319 321.60287953 673.5530347 320.90762138 667.42912674 C320.5701518 664.45719131 320.23249227 661.48527751 319.89480591 658.5133667 C319.45350778 654.62937932 319.01307004 650.7452957 318.57321167 646.86114502 C317.65376308 638.75103444 316.72885537 630.64202512 315.75634766 622.53808594 C315.6132869 621.33759613 315.47022614 620.13710632 315.3228302 618.90023804 C315.07066998 616.79537223 314.81438569 614.69099318 314.55253601 612.58731079 C313.88132166 606.97122336 313.64147504 601.53199877 313.75 595.875 C313.02296875 596.06835938 312.2959375 596.26171875 311.546875 596.4609375 C285.51082206 603.20360762 259.16190628 603.51957365 232.75 598.875 C231.59902832 598.67414795 231.59902832 598.67414795 230.42480469 598.46923828 C210.94570219 594.92484932 192.09427095 588.38992722 174.75 578.875 C173.54528842 578.23376164 172.33956563 577.59441928 171.1328125 576.95703125 C165.6157172 574.02333772 160.16809409 570.98651471 154.75 567.875 C148.8453375 577.16508526 142.96647222 586.46764319 137.25 595.875 C133.57962561 601.91344265 129.85038454 607.90958825 126.0625 613.875 C121.22214386 621.49951877 116.47304757 629.17731392 111.75 636.875 C106.63900769 645.20246523 101.4914771 653.50301971 96.2578125 661.75390625 C91.58280352 669.12555113 86.96093161 676.52995403 82.34033203 683.93579102 C77.79342096 691.21871455 73.21856686 698.48340577 68.60546875 705.72460938 C65.86336141 710.04538708 63.25427791 714.41187238 60.75 718.875 C61.62205078 719.26945313 61.62205078 719.26945313 62.51171875 719.671875 C71.47632875 724.49054844 76.10923577 733.77836591 79.75 742.875 C82.48498597 755.20615061 81.24366975 768.2689689 74.875 779.25 C66.81285592 791.57918132 56.97441584 798.06889604 42.75 801.625 C28.07853221 802.84762232 15.39343272 799.69348032 3.7890625 790.28515625 C-5.04819434 782.08464499 -9.8984343 771.49173208 -10.5234375 759.5546875 C-10.92656607 745.96248904 -8.69758096 735.22021336 0.75 724.875 C7.03762397 718.24826822 15.63188262 712.54228913 24.75 710.875 C26.42224323 711.007363 28.09004057 711.20354386 29.75 711.4453125 C40.2132739 712.82130448 40.2132739 712.82130448 49.7578125 709.40136719 C53.49913352 705.06826138 55.85312603 699.90833457 58.29833984 694.77099609 C60.84839924 689.68374339 63.99264733 684.97221431 67.0625 680.1875 C68.34266069 678.1436888 69.61998307 676.09809719 70.89453125 674.05078125 C74.67739005 667.99075044 78.46338911 661.9326868 82.25 655.875 C83.50001464 653.87500915 84.75001462 651.87500914 86 649.875 C108.5 613.875 108.5 613.875 110.37670898 610.87231445 C111.62107094 608.88130288 112.86537476 606.89025497 114.10961914 604.89916992 C117.32039435 599.76134054 120.53231503 594.62423251 123.74609375 589.48828125 C130.11649289 579.30565628 136.48511028 569.12299851 142.75 558.875 C139.22574142 555.29910393 135.59615983 551.87090499 131.875 548.5 C129.83054717 546.62801201 127.79034948 544.75146598 125.75 542.875 C125.10675781 542.28847656 124.46351563 541.70195313 123.80078125 541.09765625 C117.73701099 535.32753103 112.81082015 528.51329259 107.75 521.875 C107.04617188 520.96621094 106.34234375 520.05742188 105.6171875 519.12109375 C84.75 491.45306174 84.75 491.45306174 84.75 480.875 C84.12399902 481.10872314 83.49799805 481.34244629 82.85302734 481.58325195 C62.20185791 489.27050128 41.42859885 496.59982886 20.63232422 503.8840332 C18.40458227 504.66476183 16.1768801 505.44560393 13.94921875 506.2265625 C12.86354614 506.60699203 11.77787354 506.98742157 10.65930176 507.37937927 C1.62960959 510.55037327 -7.37541466 513.78805108 -16.36750793 517.06411743 C-17.34475327 517.41855927 -18.3219986 517.7730011 -19.32885742 518.13818359 C-20.18541428 518.45032806 -21.04197113 518.76247253 -21.92448425 519.08407593 C-24.02002419 519.79678363 -26.09476794 520.37650725 -28.25 520.875 C-27.92 521.865 -27.59 522.855 -27.25 523.875 C-26.3256405 533.56299864 -28.2230458 542.38826451 -34.45703125 549.9921875 C-42.08603501 558.0034725 -49.56641104 561.89420822 -60.625 562.3125 C-70.42750863 562.02687912 -78.11417652 559.10122638 -85.23828125 552.296875 C-92.12324768 544.00817754 -94.75905296 534.95874353 -94.65234375 524.39453125 C-93.64839417 515.61240918 -88.73183013 508.38962699 -82.3359375 502.49609375 C-73.73891 495.81488324 -64.90795664 495.05604446 -54.25 495.875 C-47.89491477 497.39431682 -42.94383996 500.48028855 -37.94140625 504.60546875 C-36.16286601 506.07992144 -36.16286601 506.07992144 -33.25 506.875 C-30.67480455 506.27477117 -30.67480455 506.27477117 -27.80859375 505.20703125 C-26.68437012 504.81427002 -25.56014648 504.42150879 -24.40185547 504.0168457 C-23.17611816 503.57816162 -21.95038086 503.13947754 -20.6875 502.6875 C-19.40018087 502.23382803 -18.11257706 501.78096315 -16.82470703 501.32885742 C-14.0728803 500.36104006 -11.32311064 499.38765131 -8.57470703 498.41015625 C-4.19872569 496.85460496 0.18342409 495.31694299 4.56640625 493.78125 C17.10374926 489.38360271 29.6300534 484.96300392 42.08154297 480.32666016 C48.36147222 477.99666123 54.67568463 475.76892257 61 473.5625 C61.96574951 473.22444336 62.93149902 472.88638672 63.92651367 472.53808594 C68.83505267 470.83414573 73.73610599 469.23927779 78.75 467.875 C78.4554895 466.91013672 78.4554895 466.91013672 78.1550293 465.92578125 C72.75779745 448.13696186 67.66405141 430.4787045 67.546875 411.73828125 C67.53995132 410.98463287 67.53302765 410.2309845 67.52589417 409.45449829 C67.50869436 407.03211203 67.50230581 404.60994447 67.5 402.1875 C67.49866058 401.36130157 67.49732117 400.53510315 67.49594116 399.68386841 C67.50195173 382.59873801 69.07297851 366.35593288 73.75 349.875 C73.05922363 349.77413086 72.36844727 349.67326172 71.65673828 349.56933594 C63.8670408 348.35946042 56.29321533 346.61783645 48.66259766 344.65002441 C45.10872217 343.7343032 41.55048432 342.83586155 37.9921875 341.9375 C36.92275909 341.66718964 36.92275909 341.66718964 35.83172607 341.39141846 C29.82420126 339.87943365 23.79396825 338.48379216 17.75 337.125 C5.13365213 334.27608135 -7.39641449 331.09805364 -19.9375 327.9375 C-37.24964521 323.57616823 -54.58329288 319.44672735 -72.01708984 315.60107422 C-77.94582249 314.26954946 -83.85128649 312.83847984 -89.75073242 311.38305664 C-94.24145332 310.28989879 -98.66271116 309.44841111 -103.25 308.875 C-103.62511719 309.52726562 -104.00023437 310.17953125 -104.38671875 310.8515625 C-110.74784304 321.71514504 -117.73906055 329.41451853 -129.875 333.8125 C-142.19517453 336.95640419 -154.51346122 335.57929011 -165.63671875 329.58984375 C-176.64250334 322.88173395 -182.89754668 313.12031036 -186.5625 300.9375 C-189.01329998 289.25456027 -186.82592771 278.20154605 -180.5 268.125 C-172.96203594 257.75561162 -163.37236731 250.34900943 -150.4453125 248.125 C-136.91130308 246.58376049 -124.9838681 250.46336298 -114.25 258.875 C-107.0616601 265.42346873 -102.12526169 274.32821322 -100.25 283.875 C-100.10728866 287.21641372 -100.12897432 290.53334644 -100.25 293.875 C-98.87521484 294.16890625 -98.87521484 294.16890625 -97.47265625 294.46875 C-84.74122413 297.22922499 -72.09028429 300.31207947 -59.43482971 303.39767456 C-58.73059372 303.56937164 -58.02635773 303.74106873 -57.30078125 303.91796875 C-56.60367538 304.08797394 -55.90656952 304.25797913 -55.18833923 304.43313599 C-49.34016964 305.85743199 -43.48383858 307.24541266 -37.625 308.625 C-32.0772626 309.933861 -26.56111432 311.30729273 -21.0625 312.8125 C-14.78290057 314.51476068 -8.46919781 315.99604551 -2.125 317.4375 C12.36491225 320.73296024 26.79131193 324.28096227 41.22119141 327.82836914 C53.71794361 330.8991283 66.22741741 333.91129807 78.75 336.875 C78.88341797 336.12968018 79.01683594 335.38436035 79.15429688 334.61645508 C86.07634971 302.76082752 113.67720362 271.27456314 137.75 250.875 C136.46119914 247.17530797 135.00659021 244.76601467 132.3125 241.9375 C128.83692017 238.15506717 125.6372382 234.24814747 122.5 230.1875 C118.71041207 225.2983699 114.80674206 220.54471132 110.75 215.875 C106.29609178 210.74584493 102.05374182 205.49481652 97.89453125 200.125 C94.15423057 195.32369713 90.21830086 190.71712983 86.22827148 186.12280273 C82.79747958 182.15185066 79.52173624 178.08891339 76.3125 173.9375 C71.86186411 168.18481207 67.17498471 162.67934436 62.3840332 157.20825195 C58.68379537 152.97600449 55.1119816 148.66774077 51.62890625 144.25390625 C45.85593145 136.94467205 39.8696554 129.81436206 33.84106445 122.71606445 C29.40946903 117.49070416 25.07370332 112.18987719 20.75 106.875 C19.33375089 105.14549133 17.91707527 103.41633183 16.5 101.6875 C10.56343451 94.43286935 4.65782736 87.15303691 -1.25 79.875 C-4.90403672 80.49934081 -8.06407543 81.56803864 -11.5 82.9375 C-22.87353362 86.74266746 -34.47297929 86.21465709 -45.44140625 81.3671875 C-49.42742374 79.24944246 -52.88547366 76.87731656 -56.25 73.875 C-57.11625 73.111875 -57.9825 72.34875 -58.875 71.5625 C-67.86514006 61.38944677 -72.60091659 49.66906498 -72.46875 36.10546875 C-71.50188202 21.82690056 -64.60873199 11.47089625 -54.23828125 2.046875 C-38.88815164 -10.28304655 -16.32304401 -10.62253479 0 0 Z " fill="#FEFEFE" transform="translate(244.25,96.125)"/>
<path d="M0 0 C9.81653295 7.50206583 17.05757642 16.63982737 19.75 28.875 C20.66502115 43.87534668 19.06803028 55.57520002 9.75 67.875 C11.47215718 71.87040467 14.12753635 75.12012073 16.8125 78.5 C17.30274658 79.12100586 17.79299316 79.74201172 18.2980957 80.38183594 C21.91474205 84.92271681 25.71684574 89.25207545 29.64453125 93.52734375 C32.43305056 96.63662038 35.00161614 99.89647307 37.5859375 103.17578125 C40.08436646 106.29205275 42.65956564 109.33520909 45.25 112.375 C49.07113151 116.86484572 52.80373051 121.40851796 56.46875 126.02734375 C63.64796687 134.98907166 70.98206712 143.82953424 78.4375 152.5625 C82.63698488 157.48474034 86.65010004 162.53127963 90.62133789 167.63867188 C94.65492397 172.80511017 98.87095304 177.80001637 103.125 182.78515625 C107.07605281 187.41926754 110.90740788 192.15095305 114.75 196.875 C116.24943092 198.70879879 117.74943458 200.54212943 119.25 202.375 C128.25 213.375 128.25 213.375 130.49609375 216.12109375 C132.00798227 217.96837522 133.52101749 219.81471875 135.03515625 221.66015625 C139.9848484 227.69657327 144.88801591 233.76771209 149.75 239.875 C152.69712741 239.26839341 154.82692447 238.36562793 157.33984375 236.72265625 C158.03013672 236.28091064 158.72042969 235.83916504 159.43164062 235.3840332 C160.17607422 234.90667725 160.92050781 234.42932129 161.6875 233.9375 C192.69672238 214.6702767 227.85565543 204.54786707 264.375 204.8125 C266.16744141 204.81926758 266.16744141 204.81926758 267.99609375 204.82617188 C270.91411647 204.83784397 273.83203037 204.85421674 276.75 204.875 C276.86625732 203.75496582 276.98251465 202.63493164 277.10229492 201.48095703 C277.71510547 196.60375283 278.87517449 191.93079317 280.11328125 187.1796875 C280.3465361 186.26978058 280.57979095 185.35987366 280.82011414 184.4223938 C281.31290084 182.50398143 281.8080442 180.58617304 282.30541992 178.66894531 C283.05455831 175.78061943 283.79648755 172.89052005 284.53710938 170 C286.8836953 160.87406598 289.31106349 151.78606722 291.9387207 142.73681641 C292.98285006 139.05361319 293.85334823 135.36138488 294.6875 131.625 C296.24051754 124.80902227 298.04623328 118.08924117 299.95361328 111.36474609 C301.77161121 104.91291452 303.32632247 98.42623157 304.75 91.875 C304.24210937 91.5346875 303.73421875 91.194375 303.2109375 90.84375 C295.86540333 85.67161358 289.4515222 79.01895266 287.75 69.875 C286.6627205 59.01318764 287.0505147 50.0144213 293.75 40.875 C299.71792981 34.0912296 307.57190058 28.81634353 316.75 27.875 C327.18877913 27.35306104 335.27028581 29.59105507 343.75 35.875 C350.00576487 41.59493918 354.27803247 49.23460114 354.98828125 57.72265625 C355.23036849 68.20885619 353.49884518 75.98110024 346.75 84.1875 C341.15570168 90.01373441 333.76985049 94.37440428 325.75 95.875 C323.41699067 95.91388349 321.08290199 95.9198635 318.75 95.875 C318.64441772 96.44410599 318.53883545 97.01321198 318.43005371 97.5995636 C317.04186368 104.82663233 315.262793 111.9236606 313.40625 119.04296875 C312.90734897 120.97028639 312.4084484 122.89760415 311.90956879 124.82492733 C311.38411133 126.85277427 310.85730924 128.88026733 310.33007812 130.90765381 C309.24340837 135.08634175 308.16038496 139.26596884 307.078125 143.44580078 C305.99388656 147.63281459 304.90954691 151.81980152 303.82397461 156.00646973 C300.77947197 167.74923769 297.75834049 179.49791845 294.75 191.25 C294.33139479 192.88436246 293.91277554 194.51872132 293.49414062 196.15307617 C292.57887 199.72690834 291.66419701 203.30089303 290.75 206.875 C291.96534424 206.85751709 293.18068848 206.84003418 294.43286133 206.82202148 C297.66683782 206.82411013 300.64908852 207.0581545 303.82421875 207.72265625 C304.72769043 207.91158447 305.63116211 208.1005127 306.56201172 208.29516602 C343.25276194 216.49124038 376.71623674 232.18487855 404.4765625 257.7890625 C406.5889424 259.7272255 408.74998072 261.58523271 410.9375 263.4375 C415.84258994 267.7058237 420.14260637 272.46390956 423.75 277.875 C428.53434963 276.31963159 431.96547596 273.61204542 435.875 270.5625 C441.83848017 265.99733877 447.90349333 261.64391276 454.125 257.4375 C461.21361528 252.63803641 468.19360052 247.71465319 475.1184082 242.68212891 C482.24851286 237.50185136 489.44515261 232.41954919 496.65429688 227.35009766 C498.73486243 225.88565484 500.81316142 224.41805809 502.890625 222.94921875 C514.66983073 214.62106026 526.48890663 206.35035084 538.31152344 198.08398438 C540.85372513 196.30628889 543.39566905 194.52822554 545.9375 192.75 C547.17753784 191.8827832 547.17753784 191.8827832 548.44262695 190.99804688 C553.16801822 187.69087887 557.88203971 184.36830561 562.58740234 181.03271484 C569.89521651 175.85339024 577.25713244 170.7836223 584.75 165.875 C584.20798316 162.20717731 583.46863811 158.90956994 582.1875 155.4375 C578.86360581 144.49497706 579.95022432 133.16628374 584.75 122.875 C591.95651745 109.4430504 602.00543082 100.02398154 616.75 95.4375 C630.62842835 91.93391417 643.96590018 93.96203359 656.3203125 101.28515625 C667.91516955 108.87214471 674.11550998 119.71688414 678.36328125 132.7578125 C680.85088476 146.37681353 677.80123597 159.00849507 670.3671875 170.56640625 C661.92629961 182.61607954 651.31254333 189.21150452 636.75 191.875 C622.36658885 193.41155383 610.24766555 189.50826455 598.75 180.875 C598.01136719 179.99521484 598.01136719 179.99521484 597.2578125 179.09765625 C595.77870294 177.63315815 595.77870294 177.63315815 593.47265625 177.89453125 C589.89416548 179.18319866 587.16132747 181.25773351 584.1875 183.5625 C582.84793038 184.57240664 581.50669753 185.5801098 580.1640625 186.5859375 C579.45024414 187.12186523 578.73642578 187.65779297 578.00097656 188.20996094 C574.07594348 191.11329344 570.06881376 193.89795327 566.0625 196.6875 C565.22082275 197.2748291 564.37914551 197.8621582 563.51196289 198.46728516 C560.92558341 200.27121198 558.33791106 202.07327124 555.75 203.875 C552.37354784 206.2270917 548.99840221 208.58103595 545.625 210.9375 C544.79597168 211.51661133 543.96694336 212.09572266 543.11279297 212.69238281 C537.598421 216.55449636 532.13242856 220.47825739 526.6875 224.4375 C520.61068576 228.85572501 514.46582748 233.15469696 508.25 237.375 C501.20650914 242.15746627 494.26815304 247.06337105 487.38110352 252.06811523 C480.26150157 257.24111553 473.07521774 262.315915 465.87646484 267.37792969 C463.70331304 268.90786848 461.53289793 270.44161524 459.36328125 271.9765625 C450.85910574 277.9921497 442.32908467 283.96662169 433.75 289.875 C434.13929688 290.52082031 434.52859375 291.16664063 434.9296875 291.83203125 C445.96184413 310.41384345 455.50177769 329.0995139 461.22705078 350.00341797 C461.66308843 351.56395234 462.13742607 353.11372102 462.62109375 354.66015625 C466.8454538 368.47140595 468.40305072 383.48369705 467.75 397.875 C469.58498047 398.23839478 469.58498047 398.23839478 471.45703125 398.60913086 C477.61055912 399.98110204 483.49104826 402.0549833 489.4375 404.12890625 C490.65284424 404.54865219 491.86818848 404.96839813 493.12036133 405.40086365 C495.69327296 406.28970878 498.26504494 407.18174802 500.8359375 408.07641602 C504.04878416 409.19445386 507.26349128 410.30700675 510.47898483 411.41740608 C526.06218137 416.79964412 541.60077255 422.29784379 557.10040283 427.91610718 C561.23058222 429.41082472 565.36513796 430.89329549 569.5 432.375 C570.5043811 432.73820595 570.5043811 432.73820595 571.52905273 433.10874939 C576.53571475 434.95520748 576.53571475 434.95520748 581.75 435.875 C583.75118168 434.8079832 583.75118168 434.8079832 585.5 433.125 C591.79436779 428.05650159 598.21544466 426.31093134 606.265625 426.5859375 C615.95621819 427.71345935 623.0665082 432.38815595 629.203125 439.828125 C634.75395091 447.17315726 634.84142301 454.87985538 633.75 463.875 C630.81687259 473.52987772 625.40874607 478.99422137 616.88671875 483.9609375 C609.72362117 487.30473894 600.89046661 487.12894179 593.4609375 484.87890625 C585.16019191 481.16983892 579.3183818 475.63862289 575.59765625 467.2890625 C573.55463763 461.16942147 572.67448927 455.1015322 574.75 448.875 C573.52059692 448.71572021 573.52059692 448.71572021 572.26635742 448.55322266 C568.15214128 447.75968711 564.41400596 446.46222872 560.48828125 445.0234375 C559.68093033 444.73251724 558.87357941 444.44159698 558.04176331 444.14186096 C556.29454019 443.51183882 554.54812172 442.87958165 552.8024292 442.24533081 C548.09996822 440.53707342 543.39159283 438.84526566 538.68359375 437.15234375 C537.70747131 436.80093826 536.73134888 436.44953278 535.72564697 436.08747864 C524.16098926 431.93148521 512.55247252 427.90150308 500.93936157 423.88323975 C489.81504865 420.03403505 478.74868406 416.07068068 467.75 411.875 C467.69408691 412.9688501 467.63817383 414.0627002 467.58056641 415.18969727 C466.05234381 443.98090285 458.84585962 476.51833124 441.89453125 500.5 C440.44337042 502.83186654 440.44337042 502.83186654 441.46289062 505.29174805 C442.78445087 507.94414353 444.07649179 509.53546341 446.19921875 511.58203125 C446.88306641 512.25169922 447.56691406 512.92136719 448.27148438 513.61132812 C449.34366211 514.6390332 449.34366211 514.6390332 450.4375 515.6875 C455.21706474 520.31645751 459.80247724 524.98998241 464.13989258 530.0378418 C466.39693782 532.61316635 468.79963794 534.98229351 471.25 537.375 C475.03680573 541.10502623 478.62397309 544.93734079 482.07421875 548.98046875 C483.88977378 551.03301931 485.79759536 552.95246006 487.75 554.875 C490.28814799 557.37439764 492.69128303 559.91281792 495 562.625 C498.08561568 566.22016689 501.3819696 569.54838405 504.75 572.875 C508.67065661 576.74756514 512.404042 580.68292255 515.9765625 584.8828125 C518.94693779 588.21957769 522.17081411 591.30278176 525.34765625 594.44140625 C527.38714373 596.50742365 529.305078 598.60505549 531.1875 600.8125 C534.49211116 604.67959816 538.07845304 608.23277845 541.69628906 611.80175781 C544.98032695 615.05863618 548.04717621 618.43258157 551.046875 621.94921875 C554.11536827 625.41886825 557.43759155 628.64002448 560.75 631.875 C563.42038897 630.81673474 566.07024117 629.73521219 568.703125 628.5859375 C580.95142353 623.6227644 593.52660155 622.67901348 606.0390625 627.546875 C618.82146265 633.80914597 628.32020888 643.44403563 633.0625 656.875 C636.45551774 668.75056209 636.11217426 681.36940358 630.42578125 692.45703125 C622.99619501 705.46368222 613.32602862 713.71042039 598.75 717.875 C586.35733229 720.78288581 574.53519259 718.32006059 563.5 712.1875 C553.31226692 705.58862744 544.90988151 696.14436504 542.13598633 684.12133789 C540.08773272 672.20104602 540.35226339 659.38170548 546.75 648.875 C547.32105469 648.19566406 547.89210938 647.51632812 548.48046875 646.81640625 C549.95049218 644.97984218 549.95049218 644.97984218 549.6640625 642.859375 C548.52353696 640.38336228 547.11625763 638.98555733 545.125 637.125 C542.38105439 634.48827785 539.78103344 631.83383549 537.3125 628.9375 C534.74334729 625.94698284 532.05682744 623.14383316 529.25 620.375 C525.8428121 617.01385518 522.67541826 613.53798797 519.5625 609.90625 C517.5390712 607.63861428 515.41346653 605.5092305 513.25 603.375 C510.54616607 600.70745914 507.95744465 598.02040508 505.5 595.125 C502.26661096 591.34767635 498.78300089 587.86816999 495.25 584.375 C491.13027484 580.30172044 487.17298716 576.1852522 483.421875 571.765625 C480.73857156 568.73123513 477.82003379 565.93733063 474.9375 563.09375 C472.34803119 560.46728878 469.96163036 557.70523542 467.5625 554.90625 C465.5390712 552.63861428 463.41346653 550.5092305 461.25 548.375 C457.8428121 545.01385518 454.67541826 541.53798797 451.5625 537.90625 C448.82943977 534.84333768 445.88751514 532.00163604 442.9609375 529.125 C440.2310208 526.34685155 437.72910594 523.41478115 435.2578125 520.40625 C433.71999474 518.61272159 433.71999474 518.61272159 430.75 517.875 C430.16734375 518.66261719 429.5846875 519.45023438 428.984375 520.26171875 C423.1122333 528.10055416 416.85444453 535.40248972 410.08398438 542.47802734 C408.94641327 543.66931246 407.82321776 544.87429764 406.703125 546.08203125 C396.57105221 556.71204779 384.11081313 565.07045953 371.75 572.875 C370.68910156 573.55175781 369.62820313 574.22851562 368.53515625 574.92578125 C355.94931908 582.53830579 341.78717051 588.50040234 327.75 592.875 C328.91947276 607.62043476 330.43567875 622.29131282 332.26416016 636.96875 C334.76479837 657.0743839 337.25456196 677.18373838 339.5625 697.3125 C339.748125 698.88040283 339.748125 698.88040283 339.9375 700.47998047 C340.629958 706.63980174 340.89527493 712.67745234 340.75 718.875 C341.74 718.9575 342.73 719.04 343.75 719.125 C352.24960908 720.40763719 358.50219911 725.22853149 363.75 731.875 C368.6840398 739.54486331 369.91184774 746.87616045 368.75 755.875 C366.56536943 765.70583756 361.0958103 773.24157805 352.75 778.875 C347.48863498 781.51551071 343.30317403 782.42540606 337.4375 782.375 C336.69274414 782.37145508 335.94798828 782.36791016 335.18066406 782.36425781 C328.77540886 782.17218367 324.04910787 780.53950403 318.75 776.875 C317.8425 776.318125 316.935 775.76125 316 775.1875 C309.159415 768.15689874 305.77103258 759.77767423 305.375 750.0625 C305.61489733 739.92368128 309.43509289 733.60222409 316.140625 726.19921875 C318.35807315 724.22409652 320.40031971 722.77183548 322.91308594 721.22973633 C323.63204041 720.78664627 324.35099487 720.34355621 325.09173584 719.88703918 C325.63896301 719.55306625 326.18619019 719.21909332 326.75 718.875 C325.49825063 707.85023218 324.24624112 696.82549393 322.99392223 685.80079079 C322.29830873 679.67692319 321.60287953 673.5530347 320.90762138 667.42912674 C320.5701518 664.45719131 320.23249227 661.48527751 319.89480591 658.5133667 C319.45350778 654.62937932 319.01307004 650.7452957 318.57321167 646.86114502 C317.65376308 638.75103444 316.72885537 630.64202512 315.75634766 622.53808594 C315.6132869 621.33759613 315.47022614 620.13710632 315.3228302 618.90023804 C315.07066998 616.79537223 314.81438569 614.69099318 314.55253601 612.58731079 C313.88132166 606.97122336 313.64147504 601.53199877 313.75 595.875 C313.02296875 596.06835938 312.2959375 596.26171875 311.546875 596.4609375 C285.51082206 603.20360762 259.16190628 603.51957365 232.75 598.875 C231.59902832 598.67414795 231.59902832 598.67414795 230.42480469 598.46923828 C210.94570219 594.92484932 192.09427095 588.38992722 174.75 578.875 C173.54528842 578.23376164 172.33956563 577.59441928 171.1328125 576.95703125 C165.6157172 574.02333772 160.16809409 570.98651471 154.75 567.875 C148.8453375 577.16508526 142.96647222 586.46764319 137.25 595.875 C133.57962561 601.91344265 129.85038454 607.90958825 126.0625 613.875 C121.22214386 621.49951877 116.47304757 629.17731392 111.75 636.875 C106.63900769 645.20246523 101.4914771 653.50301971 96.2578125 661.75390625 C91.58280352 669.12555113 86.96093161 676.52995403 82.34033203 683.93579102 C77.79342096 691.21871455 73.21856686 698.48340577 68.60546875 705.72460938 C65.86336141 710.04538708 63.25427791 714.41187238 60.75 718.875 C61.62205078 719.26945313 61.62205078 719.26945313 62.51171875 719.671875 C71.47632875 724.49054844 76.10923577 733.77836591 79.75 742.875 C82.48498597 755.20615061 81.24366975 768.2689689 74.875 779.25 C66.81285592 791.57918132 56.97441584 798.06889604 42.75 801.625 C28.07853221 802.84762232 15.39343272 799.69348032 3.7890625 790.28515625 C-5.04819434 782.08464499 -9.8984343 771.49173208 -10.5234375 759.5546875 C-10.92656607 745.96248904 -8.69758096 735.22021336 0.75 724.875 C7.03762397 718.24826822 15.63188262 712.54228913 24.75 710.875 C26.42224323 711.007363 28.09004057 711.20354386 29.75 711.4453125 C40.2132739 712.82130448 40.2132739 712.82130448 49.7578125 709.40136719 C53.49913352 705.06826138 55.85312603 699.90833457 58.29833984 694.77099609 C60.84839924 689.68374339 63.99264733 684.97221431 67.0625 680.1875 C68.34266069 678.1436888 69.61998307 676.09809719 70.89453125 674.05078125 C74.67739005 667.99075044 78.46338911 661.9326868 82.25 655.875 C83.50001464 653.87500915 84.75001462 651.87500914 86 649.875 C108.5 613.875 108.5 613.875 110.37670898 610.87231445 C111.62107094 608.88130288 112.86537476 606.89025497 114.10961914 604.89916992 C117.32039435 599.76134054 120.53231503 594.62423251 123.74609375 589.48828125 C130.11649289 579.30565628 136.48511028 569.12299851 142.75 558.875 C139.22574142 555.29910393 135.59615983 551.87090499 131.875 548.5 C129.83054717 546.62801201 127.79034948 544.75146598 125.75 542.875 C125.10675781 542.28847656 124.46351563 541.70195313 123.80078125 541.09765625 C117.73701099 535.32753103 112.81082015 528.51329259 107.75 521.875 C107.04617188 520.96621094 106.34234375 520.05742188 105.6171875 519.12109375 C84.75 491.45306174 84.75 491.45306174 84.75 480.875 C84.12399902 481.10872314 83.49799805 481.34244629 82.85302734 481.58325195 C62.20185791 489.27050128 41.42859885 496.59982886 20.63232422 503.8840332 C18.40458227 504.66476183 16.1768801 505.44560393 13.94921875 506.2265625 C12.86354614 506.60699203 11.77787354 506.98742157 10.65930176 507.37937927 C1.62960959 510.55037327 -7.37541466 513.78805108 -16.36750793 517.06411743 C-17.34475327 517.41855927 -18.3219986 517.7730011 -19.32885742 518.13818359 C-20.18541428 518.45032806 -21.04197113 518.76247253 -21.92448425 519.08407593 C-24.02002419 519.79678363 -26.09476794 520.37650725 -28.25 520.875 C-27.92 521.865 -27.59 522.855 -27.25 523.875 C-26.3256405 533.56299864 -28.2230458 542.38826451 -34.45703125 549.9921875 C-42.08603501 558.0034725 -49.56641104 561.89420822 -60.625 562.3125 C-70.42750863 562.02687912 -78.11417652 559.10122638 -85.23828125 552.296875 C-92.12324768 544.00817754 -94.75905296 534.95874353 -94.65234375 524.39453125 C-93.64839417 515.61240918 -88.73183013 508.38962699 -82.3359375 502.49609375 C-73.73891 495.81488324 -64.90795664 495.05604446 -54.25 495.875 C-47.89491477 497.39431682 -42.94383996 500.48028855 -37.94140625 504.60546875 C-36.16286601 506.07992144 -36.16286601 506.07992144 -33.25 506.875 C-30.67480455 506.27477117 -30.67480455 506.27477117 -27.80859375 505.20703125 C-26.68437012 504.81427002 -25.56014648 504.42150879 -24.40185547 504.0168457 C-23.17611816 503.57816162 -21.95038086 503.13947754 -20.6875 502.6875 C-19.40018087 502.23382803 -18.11257706 501.78096315 -16.82470703 501.32885742 C-14.0728803 500.36104006 -11.32311064 499.38765131 -8.57470703 498.41015625 C-4.19872569 496.85460496 0.18342409 495.31694299 4.56640625 493.78125 C17.10374926 489.38360271 29.6300534 484.96300392 42.08154297 480.32666016 C48.36147222 477.99666123 54.67568463 475.76892257 61 473.5625 C61.96574951 473.22444336 62.93149902 472.88638672 63.92651367 472.53808594 C68.83505267 470.83414573 73.73610599 469.23927779 78.75 467.875 C78.4554895 466.91013672 78.4554895 466.91013672 78.1550293 465.92578125 C72.75779745 448.13696186 67.66405141 430.4787045 67.546875 411.73828125 C67.53995132 410.98463287 67.53302765 410.2309845 67.52589417 409.45449829 C67.50869436 407.03211203 67.50230581 404.60994447 67.5 402.1875 C67.49866058 401.36130157 67.49732117 400.53510315 67.49594116 399.68386841 C67.50195173 382.59873801 69.07297851 366.35593288 73.75 349.875 C73.05922363 349.77413086 72.36844727 349.67326172 71.65673828 349.56933594 C63.8670408 348.35946042 56.29321533 346.61783645 48.66259766 344.65002441 C45.10872217 343.7343032 41.55048432 342.83586155 37.9921875 341.9375 C36.92275909 341.66718964 36.92275909 341.66718964 35.83172607 341.39141846 C29.82420126 339.87943365 23.79396825 338.48379216 17.75 337.125 C5.13365213 334.27608135 -7.39641449 331.09805364 -19.9375 327.9375 C-37.24964521 323.57616823 -54.58329288 319.44672735 -72.01708984 315.60107422 C-77.94582249 314.26954946 -83.85128649 312.83847984 -89.75073242 311.38305664 C-94.24145332 310.28989879 -98.66271116 309.44841111 -103.25 308.875 C-103.62511719 309.52726562 -104.00023437 310.17953125 -104.38671875 310.8515625 C-110.74784304 321.71514504 -117.73906055 329.41451853 -129.875 333.8125 C-142.19517453 336.95640419 -154.51346122 335.57929011 -165.63671875 329.58984375 C-176.64250334 322.88173395 -182.89754668 313.12031036 -186.5625 300.9375 C-189.01329998 289.25456027 -186.82592771 278.20154605 -180.5 268.125 C-172.96203594 257.75561162 -163.37236731 250.34900943 -150.4453125 248.125 C-136.91130308 246.58376049 -124.9838681 250.46336298 -114.25 258.875 C-107.0616601 265.42346873 -102.12526169 274.32821322 -100.25 283.875 C-100.10728866 287.21641372 -100.12897432 290.53334644 -100.25 293.875 C-98.87521484 294.16890625 -98.87521484 294.16890625 -97.47265625 294.46875 C-84.74122413 297.22922499 -72.09028429 300.31207947 -59.43482971 303.39767456 C-58.73059372 303.56937164 -58.02635773 303.74106873 -57.30078125 303.91796875 C-56.60367538 304.08797394 -55.90656952 304.25797913 -55.18833923 304.43313599 C-49.34016964 305.85743199 -43.48383858 307.24541266 -37.625 308.625 C-32.0772626 309.933861 -26.56111432 311.30729273 -21.0625 312.8125 C-14.78290057 314.51476068 -8.46919781 315.99604551 -2.125 317.4375 C12.36491225 320.73296024 26.79131193 324.28096227 41.22119141 327.82836914 C53.71794361 330.8991283 66.22741741 333.91129807 78.75 336.875 C78.88341797 336.12968018 79.01683594 335.38436035 79.15429688 334.61645508 C86.07634971 302.76082752 113.67720362 271.27456314 137.75 250.875 C136.46119914 247.17530797 135.00659021 244.76601467 132.3125 241.9375 C128.83692017 238.15506717 125.6372382 234.24814747 122.5 230.1875 C118.71041207 225.2983699 114.80674206 220.54471132 110.75 215.875 C106.29609178 210.74584493 102.05374182 205.49481652 97.89453125 200.125 C94.15423057 195.32369713 90.21830086 190.71712983 86.22827148 186.12280273 C82.79747958 182.15185066 79.52173624 178.08891339 76.3125 173.9375 C71.86186411 168.18481207 67.17498471 162.67934436 62.3840332 157.20825195 C58.68379537 152.97600449 55.1119816 148.66774077 51.62890625 144.25390625 C45.85593145 136.94467205 39.8696554 129.81436206 33.84106445 122.71606445 C29.40946903 117.49070416 25.07370332 112.18987719 20.75 106.875 C19.33375089 105.14549133 17.91707527 103.41633183 16.5 101.6875 C10.56343451 94.43286935 4.65782736 87.15303691 -1.25 79.875 C-4.90403672 80.49934081 -8.06407543 81.56803864 -11.5 82.9375 C-22.87353362 86.74266746 -34.47297929 86.21465709 -45.44140625 81.3671875 C-49.42742374 79.24944246 -52.88547366 76.87731656 -56.25 73.875 C-57.11625 73.111875 -57.9825 72.34875 -58.875 71.5625 C-67.86514006 61.38944677 -72.60091659 49.66906498 -72.46875 36.10546875 C-71.50188202 21.82690056 -64.60873199 11.47089625 -54.23828125 2.046875 C-38.88815164 -10.28304655 -16.32304401 -10.62253479 0 0 Z M217.75 224.875 C216.8439502 225.13200684 215.93790039 225.38901367 215.00439453 225.65380859 C187.71588603 233.54533715 162.92242743 247.48790195 142.05078125 266.76171875 C139.97214766 268.67095605 137.84579254 270.49476644 135.6875 272.3125 C107.32288079 297.21663567 90.49741271 335.09003906 84.140625 371.64892578 C83.80515859 373.56066497 83.43701132 375.46661858 83.0625 377.37109375 C75.16786934 422.16215796 89.97256363 471.63961141 115.16357422 508.65625 C119.28232572 514.41667069 123.99563537 519.63962194 128.75 524.875 C129.89797591 526.24821169 131.0441615 527.62292481 132.1875 529 C157.29872626 557.29518557 192.41544686 575.05600314 228.75 583.875 C229.47316406 584.05434082 230.19632813 584.23368164 230.94140625 584.41845703 C242.46060622 587.12869871 254.10540944 587.15523926 265.875 587.1875 C266.63168976 587.19126648 267.38837952 587.19503296 268.16799927 587.19891357 C282.44101443 587.2348867 296.70972321 586.36666854 310.5625 582.6875 C311.38524414 582.47391846 312.20798828 582.26033691 313.05566406 582.0402832 C328.36572218 577.94259118 342.86595077 572.52671431 356.75 564.875 C357.44722168 564.49472656 358.14444336 564.11445312 358.86279297 563.72265625 C374.6134732 555.05320898 387.79296927 544.26092194 400.75 531.875 C401.43835938 531.22789062 402.12671875 530.58078125 402.8359375 529.9140625 C407.63106845 525.29251095 411.72259356 520.16961931 415.75 514.875 C416.92755859 513.33005859 416.92755859 513.33005859 418.12890625 511.75390625 C441.70013182 480.16595295 453.69397021 441.39409314 453.3125 402.125 C453.30790771 401.16799194 453.30331543 400.21098389 453.29858398 399.22497559 C453.197988 383.92738196 452.1267985 369.61884374 447.75 354.875 C447.45528809 353.85583496 447.16057617 352.83666992 446.85693359 351.78662109 C443.03134514 338.82577409 438.29404898 326.68974853 431.75 314.875 C431.10592456 313.66581497 430.46269216 312.45618051 429.8203125 311.24609375 C422.62385955 297.93129454 413.16796224 286.75195033 402.75 275.875 C402.27304687 275.37081543 401.79609375 274.86663086 401.3046875 274.34716797 C380.16742028 252.0866302 353.52911432 237.7912097 324.75 227.875 C324.02546631 227.61428711 323.30093262 227.35357422 322.55444336 227.08496094 C316.84616392 225.08028633 311.13494241 223.82665503 305.1875 222.75 C304.29353516 222.58113281 303.39957031 222.41226563 302.47851562 222.23828125 C294.02666326 220.6678566 285.81417903 219.71138213 277.22265625 219.6015625 C276.32466309 219.58898911 275.42666992 219.57641571 274.50146484 219.5634613 C255.04584336 219.34379497 236.56567358 219.32958269 217.75 224.875 Z " fill="#037959" transform="translate(244.25,96.125)"/>
<path d="M0 0 C11.79957483 9.18286471 20.75253152 20.8106894 22.8984375 35.83203125 C13.6584375 35.83203125 4.4184375 35.83203125 -5.1015625 35.83203125 C-6.7515625 32.86203125 -8.4015625 29.89203125 -10.1015625 26.83203125 C-15.56964767 18.86425 -23.84675737 14.50054433 -33.1171875 12.30078125 C-45.44993017 10.36370125 -58.51376002 11.82091445 -69.1015625 18.83203125 C-75.71837387 23.96238266 -81.14142811 29.42881266 -85.1015625 36.83203125 C-85.58753906 37.70601563 -86.07351563 38.58 -86.57421875 39.48046875 C-92.28722545 51.60668353 -92.09815828 67.30711957 -88.4765625 80.08203125 C-83.35246899 93.71032205 -76.39477528 103.42477634 -63.1015625 109.83203125 C-56.56840828 112.58343319 -50.71516664 113.29987681 -43.6640625 113.20703125 C-42.34825195 113.22443359 -42.34825195 113.22443359 -41.00585938 113.2421875 C-29.76500044 113.19248584 -19.49902428 109.61961827 -11.09375 102.015625 C-5.33389802 95.84435502 -2.20414108 88.5884777 0.8984375 80.83203125 C-13.2915625 80.83203125 -27.4815625 80.83203125 -42.1015625 80.83203125 C-42.1015625 73.57203125 -42.1015625 66.31203125 -42.1015625 58.83203125 C-19.3315625 58.83203125 3.4384375 58.83203125 26.8984375 58.83203125 C26.8984375 83.85067008 21.59423687 103.75838563 3.8984375 121.83203125 C3.38023437 122.38632812 2.86203125 122.940625 2.328125 123.51171875 C-1.5082999 127.22762769 -6.08128476 129.58960345 -10.7890625 132.01953125 C-11.42400635 132.35291504 -12.0589502 132.68629883 -12.71313477 133.02978516 C-22.67358391 137.9536345 -32.89794936 139.39692372 -43.9140625 139.33203125 C-45.05190186 139.32631104 -46.18974121 139.32059082 -47.36206055 139.31469727 C-56.48710922 139.12162614 -63.78397907 137.7703569 -72.1015625 133.83203125 C-73.21273437 133.33574219 -74.32390625 132.83945312 -75.46875 132.328125 C-84.03075407 128.14785242 -90.47588765 122.53789581 -97.1015625 115.83203125 C-97.69582031 115.24808594 -98.29007813 114.66414062 -98.90234375 114.0625 C-113.98249639 98.00681188 -117.66343156 75.82874715 -117.37109375 54.67578125 C-116.73600858 35.17897936 -106.88615295 17.02527128 -92.9765625 3.70703125 C-65.8984442 -19.24445601 -28.6518481 -20.02742531 0 0 Z " fill="#017959" transform="translate(618.1015625,436.16796875)"/>
<path d="M0 0 C36.96 0 73.92 0 112 0 C112 8.25 112 16.5 112 25 C97.48 25 82.96 25 68 25 C68 65.26 68 105.52 68 147 C59.75 147 51.5 147 43 147 C43 106.74 43 66.48 43 25 C28.81 25 14.62 25 0 25 C0 16.75 0 8.5 0 0 Z " fill="#007756" transform="translate(387,425)"/>
<path d="M0 0 C7.81566339 6.42621212 14.09878163 13.55447919 15.1875 23.86328125 C15.54243177 34.89944091 13.72871483 42.20872006 6.5625 50.625 C-1.13255157 58.64750057 -8.49543901 62.20496991 -19.5625 62.6875 C-28.7277218 62.48467351 -36.54717834 58.51013355 -43.1875 52.3125 C-50.03603945 44.82724826 -53.56465365 35.89408788 -53.3984375 25.73828125 C-52.59549024 16.50438777 -47.60668979 8.21627039 -40.875 2 C-28.07061733 -8.22079327 -13.88812662 -7.35253762 0 0 Z " fill="none" transform="translate(893.1875,210.6875)"/>
<path d="M0 0 C7.26733941 5.18355165 13.36571608 11.53714995 15.6015625 20.37890625 C16.97418389 29.40860187 16.79445549 38.04351756 12 46 C5.32492149 55.06184528 -1.8719973 60.23261134 -13 62 C-22.06310153 62.73089528 -30.03495368 60.53675356 -37.1171875 54.73046875 C-44.85866667 47.61537482 -48.94651462 41.85862924 -49.40039062 31.1875 C-49.58869737 20.40446124 -47.09879501 13.57345574 -39.70703125 5.71484375 C-28.8566364 -5.18520966 -13.55923857 -7.27855231 0 0 Z " fill="#FCFDFD" transform="translate(849,739)"/>
<path d="M0 0 C6.50932205 4.33100562 10.36444144 10.02792921 13.3125 17.1875 C14.99675062 26.52743527 14.93307013 34.74035297 10 43 C9.649375 43.62519531 9.29875 44.25039063 8.9375 44.89453125 C4.73903304 51.58583796 -2.42241793 56.05385927 -9.83984375 58.53125 C-18.94111645 60.50620972 -26.98768789 58.65959418 -35.0625 54.375 C-41.36285668 49.2810946 -47.68261724 43.28431082 -49 35 C-49.85272896 25.25175753 -50.31973032 16.08748706 -44 8 C-32.65857269 -4.56989913 -15.20508627 -9.06673663 0 0 Z " fill="#FCFDFD" transform="translate(297,825)"/>
<path d="M0 0 C8.5524826 4.97345455 13.92051329 11.41738468 16.87890625 20.87109375 C18.82140817 29.28860206 17.49225106 37.53486949 13.05859375 44.984375 C7.78565917 52.27595042 1.21102764 57.17399242 -7.5 59.5625 C-18.43784097 60.66526005 -26.23198985 59.23140416 -34.75 52.3125 C-40.85236561 46.63559813 -44.93045712 39.84070556 -45.8359375 31.44921875 C-45.92483132 24.16881513 -45.23589236 18.84671629 -41.5 12.5625 C-41.17257813 11.94890625 -40.84515625 11.3353125 -40.5078125 10.703125 C-32.33597038 -2.77743207 -13.71231397 -6.33953724 0 0 Z " fill="#FCFDFD" transform="translate(232.5,106.4375)"/>
<path d="M0 0 C5.46966344 4.4845083 9.52247186 9.71585307 11.76953125 16.45703125 C12.58995638 27.67399125 11.69856255 35.71856111 4.64453125 44.70703125 C-0.52219191 50.29780513 -7.64765379 53.78267142 -15.203125 54.6953125 C-23.53211789 54.99110851 -31.06504307 52.54220086 -37.60546875 47.33203125 C-44.1454066 41.11439013 -47.27407902 32.8374542 -47.66796875 23.95703125 C-47.57935795 15.89344869 -44.62645423 9.25730071 -39.26171875 3.25390625 C-27.86713288 -7.17652236 -12.91025189 -8.9309098 0 0 Z " fill="#FCFDFD" transform="translate(118.23046875,363.54296875)"/>
<path d="M0 0 C5.51247138 1.87249028 9.34513262 5.65184844 12.15234375 10.6953125 C14.30022069 16.53516224 13.90052651 22.69933023 11.4375 28.375 C8.59291714 33.32254234 4.34168966 36.21943678 -1 38 C-7.80516614 38.70572093 -13.67245308 38.81395991 -19.30859375 34.6015625 C-24.09020429 30.07394051 -26.28293735 26.03158791 -26.5 19.375 C-26.11790747 12.44002064 -24.06438662 8.79332373 -18.9375 4.1875 C-12.96995407 -0.84657506 -7.70443207 -0.77585616 0 0 Z " fill="#FCFDFD" transform="translate(572,139)"/>
<path d="M0 0 C4.38118201 2.48326106 7.42338864 5.84677729 9.6875 10.375 C10.6735026 24.1031901 10.6735026 24.1031901 6.6875 29.375 C1.85269346 34.19837674 -1.63724392 36.50902065 -8.625 36.625 C-14.19542283 36.54437546 -17.82876104 35.79888983 -21.93359375 31.79296875 C-26.51249099 26.75288762 -28.84616049 22.51830697 -28.62109375 15.48828125 C-27.66116718 8.91460692 -24.00147165 4.59516168 -18.99609375 0.50390625 C-13.55766434 -3.14274363 -5.76082758 -2.63946663 0 0 Z " fill="#FBFDFD" transform="translate(192.3125,607.625)"/>
<path d="M0 0 C4.88062876 1.63875126 8.16687462 4.75031193 11 9 C12.7034608 14.1103824 12.97227202 19.96095547 11.31640625 25.13671875 C9.08891239 29.39760949 6.16409114 31.74445063 2 34 C-3.03302042 35.51399801 -8.230613 36.04156207 -13.22265625 34.1640625 C-18.41967024 31.26927714 -21.36522799 27.73712442 -23 22 C-23.83735553 16.32138206 -23.31644187 11.8141898 -20 7 C-13.56210578 0.65152098 -9.10868901 -0.90583648 0 0 Z " fill="#FBFDFC" transform="translate(587,829)"/>
<path d="M0 0 C4.85901474 2.29698879 7.66907123 5.15884024 10 10 C10.79278091 14.96701508 10.55855686 18.79351717 8.4375 23.375 C4.25360394 27.88073422 0.54925323 30.19132559 -5.5625 30.5 C-11.19875111 30.22202163 -14.30702989 27.60145821 -18.3125 23.8125 C-20.65652361 19.90579398 -21.3102705 16.54054388 -21 12 C-19.7481788 7.58363701 -17.70702708 4.68978252 -14.4375 1.5 C-9.55375675 -0.63108796 -5.24808614 -0.7664865 0 0 Z " fill="#FAFDFC" transform="translate(854,538)"/>
<path d="M0 0 C22.77 0 45.54 0 69 0 C69 3.63 69 7.26 69 11 C68.67 11 68.34 11 68 11 C68 8.03 68 5.06 68 2 C46.22 2 24.44 2 2 2 C2 8.27 2 14.54 2 21 C15.86 21 29.72 21 44 21 C44 21.33 44 21.66 44 22 C29.48 22 14.96 22 0 22 C0 14.74 0 7.48 0 0 Z " fill="#0B7150" transform="translate(576,495)"/>
<path d="M0 0 C3.49795011 3.80211968 3.16784544 5.17491811 4 11 C-5.24 11 -14.48 11 -24 11 C-23.67 10.01 -23.34 9.02 -23 8 C-14.75 8.33 -6.5 8.66 2 9 C1.34 6.03 0.68 3.06 0 0 Z " fill="#157C5D" transform="translate(637,461)"/>
<path d="M0 0 C1.03833984 0.2165625 1.03833984 0.2165625 2.09765625 0.4375 C10.51717125 2.03487834 18.46445193 2.20989053 27 2 C27 2.66 27 3.32 27 4 C19.84353711 7.57823144 9.17492046 4.91611357 1.9140625 2.65625 C1.28242187 2.4396875 0.65078125 2.223125 0 2 C0 1.34 0 0.68 0 0 Z " fill="#1D8364" transform="translate(856,283)"/>
<path d="M0 0 C0.66 0.66 1.32 1.32 2 2 C-0.79040505 2.38838614 -3.58137886 2.76120046 -6.375 3.125 C-7.56609375 3.29322266 -7.56609375 3.29322266 -8.78125 3.46484375 C-10.84521885 3.72721267 -12.92339351 3.87150738 -15 4 C-15.66 3.34 -16.32 2.68 -17 2 C-11.38329484 0.04636342 -5.95018369 -0.73969377 0 0 Z " fill="#167D60" transform="translate(853,523)"/>
<path d="M0 0 C0.33 0 0.66 0 1 0 C1.33970765 2.49927769 1.67188032 4.99919595 2 7.5 C2.09539063 8.19609375 2.19078125 8.8921875 2.2890625 9.609375 C2.9161622 14.44700129 3.08789528 19.12181196 3 24 C2.67 24 2.34 24 2 24 C-0.60404833 16.01425178 -1.6216286 8.28832396 0 0 Z " fill="#25896C" transform="translate(572,701)"/>
<path d="M0 0 C0.99 0.33 1.98 0.66 3 1 C-1.30769231 6.78461538 -1.30769231 6.78461538 -4.8125 7.875 C-5.8953125 7.936875 -5.8953125 7.936875 -7 8 C-6.02133662 6.85373678 -5.04205413 5.70800212 -4.0625 4.5625 C-3.51722656 3.92441406 -2.97195313 3.28632813 -2.41015625 2.62890625 C-1.63204305 1.73008851 -0.84063472 0.84063472 0 0 Z " fill="#178062" transform="translate(525,440)"/>
<path d="M0 0 C0.66 0.66 1.32 1.32 2 2 C1.0479279 3.00596297 0.08812654 4.00461563 -0.875 5 C-1.40867188 5.556875 -1.94234375 6.11375 -2.4921875 6.6875 C-4 8 -4 8 -6 8 C-6.66 9.65 -7.32 11.3 -8 13 C-8.66 12.67 -9.32 12.34 -10 12 C-3.84965831 3.55353075 -3.84965831 3.55353075 0 0 Z " fill="#03704E" transform="translate(188,100)"/>
<path d="M0 0 C4.26652402 3.7924658 6.89480975 7.67233976 9 13 C9 13.66 9 14.32 9 15 C6 14 6 14 4.90234375 11.85546875 C4.58394531 10.97503906 4.26554688 10.09460938 3.9375 9.1875 C2.77223036 6.01927693 1.56894978 2.99146424 0 0 Z " fill="#147B5B" transform="translate(133,360)"/>
<path d="M0 0 C0.33 0 0.66 0 1 0 C1.22304441 1.74818591 1.4278645 3.49870323 1.625 5.25 C1.74101563 6.22453125 1.85703125 7.1990625 1.9765625 8.203125 C2.00112537 11.13429393 1.5312717 12.54528964 0 15 C-0.19448477 12.87562788 -0.38038289 10.75046809 -0.5625 8.625 C-0.66691406 7.44164062 -0.77132812 6.25828125 -0.87890625 5.0390625 C-1 2 -1 2 0 0 Z " fill="#137F5F" transform="translate(566,755)"/>
<path d="M0 0 C4.42761914 1.39153744 6.9556255 3.52071486 10 7 C10 7.66 10 8.32 10 9 C8.0625 8.1875 8.0625 8.1875 6 7 C5.67 6.01 5.34 5.02 5 4 C3.68352881 3.30062468 2.34977849 2.63270867 1 2 C0.67 1.34 0.34 0.68 0 0 Z " fill="#198062" transform="translate(619,439)"/>
<path d="M0 0 C8.57142857 1 8.57142857 1 12 2 C12 2.66 12 3.32 12 4 C8.04 3.67 4.08 3.34 0 3 C0 2.01 0 1.02 0 0 Z " fill="#197F60" transform="translate(140,402)"/>
<path d="M0 0 C3.96618775 2.86446893 6.62294981 5.70302465 9 10 C8.67 10.99 8.34 11.98 8 13 C1.48063781 4.738041 1.48063781 4.738041 0 0 Z " fill="#147857" transform="translate(375,334)"/>
<path d="M0 0 C0.75 1.625 0.75 1.625 1 4 C-1.02291546 7.61234904 -2.53871879 9.6924792 -6 12 C-4.43358249 7.69235185 -2.31663844 3.93828536 0 0 Z " fill="#137B5B" transform="translate(308,864)"/>
<path d="M0 0 C0.33 1.32 0.66 2.64 1 4 C-0.9375 6.25 -0.9375 6.25 -3 8 C-3.99 7.67 -4.98 7.34 -6 7 C-4.02 4.69 -2.04 2.38 0 0 Z " fill="#1A8061" transform="translate(658,612)"/>
<path d="M0 0 C0.99 0.33 1.98 0.66 3 1 C1.02 2.98 -0.96 4.96 -3 7 C-3.99 6.67 -4.98 6.34 -6 6 C-4.02 4.02 -2.04 2.04 0 0 Z " fill="#01714E" transform="translate(163,598)"/>
<path d="M0 0 C3.7952131 1.49097658 5.61042731 3.75700849 8 7 C5 7 5 7 2.3125 4.625 C0 2 0 2 0 0 Z " fill="#1A8061" transform="translate(640,364)"/>
<path d="M0 0 C1.231394 3.69418201 0.64432764 6.2056261 0 10 C-0.66 10 -1.32 10 -2 10 C-2.1953125 3.9453125 -2.1953125 3.9453125 -2 2 C-1.34 1.34 -0.68 0.68 0 0 Z " fill="#2C8B6F" transform="translate(820,546)"/>
<path d="M0 0 C0.33 0 0.66 0 1 0 C1.84681133 5.08086796 2.09038099 9.84828377 2 15 C1.67 15 1.34 15 1 15 C0.63355422 13.44033408 0.28239138 11.87707349 -0.0625 10.3125 C-0.25972656 9.44238281 -0.45695312 8.57226562 -0.66015625 7.67578125 C-1.02032279 4.83998724 -0.70909969 2.75210018 0 0 Z " fill="#278A6E" transform="translate(326,509)"/>
<path d="M0 0 C0.66 0 1.32 0 2 0 C1.53199289 4.05606165 1.12046792 7.46588679 -1 11 C-2.60080151 6.99799622 -1.29279692 3.95443764 0 0 Z " fill="#228769" transform="translate(536,288)"/>
<path d="M0 0 C0.33 0.66 0.66 1.32 1 2 C0.22265625 3.7265625 0.22265625 3.7265625 -0.9375 5.625 C-1.618125 6.73875 -2.29875 7.8525 -3 9 C-3.66 9 -4.32 9 -5 9 C-3.7508258 5.54074837 -2.32472205 2.85306797 0 0 Z " fill="#127A5A" transform="translate(369,685)"/>
<path d="M0 0 C3.36720387 1.39332574 4.9859524 2.9789286 7 6 C4 6 4 6 1.8125 4.125 C0 2 0 2 0 0 Z " fill="#1C8163" transform="translate(783,707)"/>
<path d="M0 0 C3.36720387 1.39332574 4.9859524 2.9789286 7 6 C4 6 4 6 1.8125 4.125 C0 2 0 2 0 0 Z " fill="#1B8162" transform="translate(734,673)"/>
<path d="M0 0 C3.36720387 1.39332574 4.9859524 2.9789286 7 6 C4 6 4 6 1.8125 4.125 C0 2 0 2 0 0 Z " fill="#137C5C" transform="translate(686,622)"/>
<path d="M0 0 C0.33 0 0.66 0 1 0 C1.95261487 4.76307437 2.08333357 9.1666528 2 14 C1.67 14 1.34 14 1 14 C1 12.02 1 10.04 1 8 C0.34 8 -0.32 8 -1 8 C-0.67 5.36 -0.34 2.72 0 0 Z " fill="#40997F" transform="translate(710,474)"/>
<path d="M0 0 C0.66 0 1.32 0 2 0 C1.67 2.97 1.34 5.94 1 9 C0.34 8.67 -0.32 8.34 -1 8 C-0.67 5.36 -0.34 2.72 0 0 Z " fill="#198061" transform="translate(525,281)"/>
<path d="M0 0 C-1.39332574 3.36720387 -2.9789286 4.9859524 -6 7 C-5.37162381 3.35541809 -4.14650034 0 0 0 Z " fill="#1D8264" transform="translate(544,457)"/>
</svg>
